<?xml version="1.0" encoding="utf-8"?>
<!-- Generator: Adobe Illustrator 23.0.1, SVG Export Plug-In . SVG Version: 6.00 Build 0)  -->
<svg version="1.1" id="Layer_2" xmlns="http://www.w3.org/2000/svg" xmlns:xlink="http://www.w3.org/1999/xlink" x="0px" y="0px"
	 width="541.797px" height="153.423px" viewBox="0 0 541.797 153.423" enable-background="new 0 0 541.797 153.423"
	 xml:space="preserve">
<g>
	<path fill="#5E5D5D" d="M210.438,71.755c0,2.185-0.355,4.398-1.063,6.64c-0.707,2.243-1.725,4.279-3.052,6.108
		c-1.328,1.829-2.938,3.35-4.825,4.558c-1.889,1.21-4.044,1.875-6.463,1.993h-52.495c-1.181,0-2.182-0.413-3.009-1.24
		c-0.825-0.826-1.238-1.828-1.238-3.009V56.708c0-1.181,0.413-2.184,1.238-3.011c0.827-0.825,1.828-1.238,3.009-1.238h51.611
		c2.534,0,4.808,0.591,6.815,1.77c2.006,1.181,3.718,2.7,5.136,4.559c1.416,1.859,2.491,3.926,3.23,6.196
		C210.068,67.256,210.438,69.515,210.438,71.755z M146.791,60.956v21.6h45.5c2.006,0,3.658-0.368,4.956-1.106
		c1.298-0.738,2.316-1.638,3.054-2.7c0.739-1.063,1.238-2.228,1.505-3.497c0.266-1.268,0.399-2.434,0.399-3.498
		c0-1.061-0.134-2.226-0.399-3.496c-0.267-1.269-0.766-2.434-1.505-3.496c-0.737-1.063-1.756-1.961-3.054-2.7
		c-1.298-0.737-2.95-1.107-4.956-1.107H146.791z"/>
	<path fill="#5E5D5D" d="M237.523,60.956c-2.066,0-3.732,0.37-5.001,1.107c-1.27,0.739-2.272,1.637-3.009,2.7
		c-0.74,1.062-1.238,2.228-1.504,3.496c-0.267,1.27-0.398,2.435-0.398,3.496c0,1.064,0.132,2.229,0.398,3.498
		c0.266,1.27,0.764,2.435,1.504,3.497c0.736,1.062,1.739,1.962,3.009,2.7c1.27,0.738,2.936,1.106,5.001,1.106h48.778
		c1.179,0,2.183,0.413,3.009,1.239c0.826,0.828,1.238,1.829,1.238,3.01c0,1.182-0.412,2.184-1.238,3.009
		c-0.826,0.828-1.83,1.24-3.009,1.24h-51.61c-2.42,0-4.575-0.59-6.461-1.77c-1.89-1.181-3.498-2.702-4.824-4.56
		c-1.328-1.86-2.347-3.938-3.056-6.241c-0.707-2.301-1.063-4.543-1.063-6.729c0-2.241,0.37-4.499,1.107-6.771
		c0.737-2.27,1.816-4.337,3.232-6.196c1.416-1.859,3.127-3.378,5.132-4.559c2.008-1.179,4.28-1.77,6.818-1.77h50.724
		c1.179,0,2.183,0.414,3.009,1.238c0.826,0.828,1.238,1.831,1.238,3.011c0,1.18-0.412,2.184-1.238,3.01
		c-0.826,0.826-1.83,1.238-3.009,1.238H237.523z M285.593,68.746c0.826,0.827,1.238,1.83,1.238,3.009
		c0,1.183-0.412,2.185-1.238,3.01c-0.827,0.828-1.829,1.24-3.01,1.24h-44.086c-1.18,0-2.184-0.412-3.009-1.24
		c-0.825-0.825-1.238-1.827-1.238-3.01c0-1.179,0.413-2.182,1.238-3.009c0.825-0.825,1.829-1.24,3.009-1.24h44.086
		C283.764,67.507,284.766,67.921,285.593,68.746z"/>
	<path fill="#5E5D5D" d="M368.627,86.805c0,1.182-0.414,2.184-1.239,3.009c-0.826,0.828-1.831,1.24-3.01,1.24
		c-0.592,0-1.121-0.118-1.594-0.355c-0.474-0.235-0.915-0.53-1.328-0.885c-0.352-0.354-0.619-0.648-0.797-0.885
		c-2.42-3.008-4.913-5.37-7.479-7.082c-2.567-1.71-5.267-3.009-8.101-3.895c-2.832-0.884-5.826-1.43-8.983-1.638
		c-3.16-0.206-6.538-0.31-10.137-0.31h-18.06v10.8c0,1.182-0.428,2.184-1.281,3.009c-0.856,0.828-1.847,1.24-2.967,1.24
		c-1.182,0-2.185-0.413-3.009-1.24c-0.829-0.826-1.24-1.828-1.24-3.009V64.055c0-1.77,0.324-3.364,0.976-4.78
		c0.647-1.417,1.471-2.625,2.475-3.63c1.002-1.002,2.155-1.783,3.453-2.346c1.299-0.56,2.597-0.84,3.895-0.84h46.211
		c1.65,0,3.215,0.31,4.692,0.93c1.472,0.62,2.771,1.46,3.892,2.522c1.12,1.062,2.007,2.302,2.657,3.718
		c0.647,1.417,0.974,2.952,0.974,4.603c0,1.181-0.414,2.184-1.239,3.01c-0.826,0.827-1.831,1.239-3.01,1.239
		c-1.181,0-2.185-0.413-3.01-1.239c-0.827-0.826-1.238-1.829-1.238-3.01c0-0.886-0.312-1.622-0.931-2.213
		c-0.619-0.59-1.343-0.943-2.168-1.063h-46.386c-0.767,0-1.39,0.193-1.858,0.576c-0.475,0.385-0.77,0.841-0.888,1.372v4.603h18.06
		c5.192,0,9.884,0.297,14.076,0.885c4.19,0.591,7.981,1.549,11.374,2.878c3.394,1.327,6.431,3.069,9.117,5.222
		c2.686,2.155,5.092,4.795,7.217,7.922C368.332,85.183,368.627,85.98,368.627,86.805z"/>
	<path fill="#5E5D5D" d="M395.713,60.956c-2.064,0-3.732,0.37-5.001,1.107c-1.268,0.739-2.272,1.637-3.009,2.7
		c-0.74,1.062-1.239,2.228-1.504,3.496c-0.267,1.27-0.399,2.435-0.399,3.496c0,1.064,0.133,2.229,0.399,3.498
		c0.265,1.27,0.764,2.435,1.504,3.497c0.736,1.062,1.741,1.962,3.009,2.7c1.269,0.738,2.937,1.106,5.001,1.106h48.778
		c1.179,0,2.181,0.413,3.009,1.239c0.826,0.828,1.238,1.829,1.238,3.01c0,1.182-0.412,2.184-1.238,3.009
		c-0.828,0.828-1.83,1.24-3.009,1.24h-51.61c-2.42,0-4.575-0.59-6.462-1.77c-1.891-1.181-3.497-2.702-4.823-4.56
		c-1.329-1.86-2.347-3.938-3.057-6.241c-0.706-2.301-1.061-4.543-1.061-6.729c0-2.241,0.368-4.499,1.105-6.771
		c0.738-2.27,1.815-4.337,3.232-6.196c1.417-1.859,3.129-3.378,5.136-4.559c2.006-1.179,4.277-1.77,6.816-1.77h50.724
		c1.179,0,2.181,0.414,3.009,1.238c0.826,0.828,1.238,1.831,1.238,3.011c0,1.18-0.412,2.184-1.238,3.01
		c-0.828,0.826-1.83,1.238-3.009,1.238H395.713z M443.781,68.746c0.827,0.827,1.241,1.83,1.241,3.009
		c0,1.183-0.414,2.185-1.241,3.01c-0.827,0.828-1.829,1.24-3.011,1.24h-44.082c-1.182,0-2.185-0.412-3.011-1.24
		c-0.825-0.825-1.239-1.827-1.239-3.01c0-1.179,0.414-2.182,1.239-3.009c0.826-0.825,1.829-1.24,3.011-1.24h44.082
		C441.952,67.507,442.954,67.921,443.781,68.746z"/>
	<path fill="#5E5D5D" d="M466,67.507h20.45c3.065,0,6.078-0.398,9.028-1.196c2.952-0.795,5.828-1.843,8.632-3.141
		c2.803-1.298,5.489-2.774,8.055-4.427c2.568-1.652,5.031-3.333,7.393-5.046c1.003-0.825,2.005-1.238,3.011-1.238
		c1.18,0,2.183,0.414,3.009,1.238c0.825,0.828,1.239,1.831,1.239,3.011c0,0.826-0.236,1.548-0.709,2.168
		c-0.473,0.619-1.031,1.165-1.682,1.638c-1.535,1.181-3.011,2.288-4.426,3.319c-1.416,1.033-2.832,1.992-4.248,2.877
		c-1.417,0.885-2.879,1.741-4.384,2.567c-1.505,0.828-3.112,1.653-4.823,2.478c1.711,0.828,3.318,1.653,4.823,2.479
		c1.505,0.827,2.967,1.683,4.384,2.567c1.416,0.885,2.832,1.845,4.248,2.877c1.415,1.033,2.891,2.139,4.426,3.32
		c0.65,0.473,1.209,1.019,1.682,1.638c0.473,0.619,0.709,1.343,0.709,2.168c0,1.182-0.414,2.184-1.239,3.009
		c-0.826,0.828-1.829,1.24-3.009,1.24c-1.006,0-2.008-0.413-3.011-1.24c-2.421-1.77-4.914-3.481-7.482-5.135
		c-2.565-1.65-5.235-3.127-8.01-4.425c-2.773-1.298-5.635-2.33-8.587-3.099c-2.95-0.766-5.963-1.151-9.028-1.151H466v10.8
		c0,1.182-0.413,2.184-1.238,3.009c-0.827,0.828-1.801,1.24-2.921,1.24c-1.182,0-2.185-0.413-3.009-1.24
		c-0.827-0.826-1.238-1.828-1.238-3.009V56.708c0-1.181,0.411-2.184,1.238-3.011c0.824-0.825,1.799-1.238,2.92-1.238
		c1.181,0,2.183,0.414,3.01,1.238c0.825,0.828,1.238,1.831,1.238,3.011V67.507z"/>
</g>
<g>
	<path fill="#5E5D5D" d="M149.926,130.286c0.178,0.052,0.323,0.152,0.435,0.302c0.11,0.145,0.167,0.309,0.167,0.498v8.44
		c0,0.228-0.078,0.422-0.238,0.582c-0.163,0.163-0.36,0.246-0.591,0.246c-0.229,0-0.423-0.083-0.589-0.246
		c-0.158-0.16-0.239-0.354-0.239-0.582v-5.463l-2.619,4.325v0.007l-0.007,0.006l-0.007,0.006l-0.006,0.008
		c-0.013,0.025-0.022,0.04-0.027,0.05l-0.021,0.029c-0.019,0.019-0.031,0.03-0.036,0.033c-0.004,0.006-0.014,0.015-0.028,0.03
		c-0.014,0.013-0.022,0.022-0.028,0.026c-0.009,0.011-0.021,0.021-0.042,0.036l-0.02,0.02c-0.015,0.01-0.033,0.019-0.051,0.027
		c0,0.006-0.003,0.008-0.006,0.008l-0.008,0.007h-0.007c-0.009,0.011-0.025,0.02-0.048,0.028c-0.021,0.01-0.027,0.014-0.023,0.014
		c-0.004,0-0.018,0.005-0.04,0.014c-0.107,0.046-0.221,0.067-0.338,0.065h-0.015c0.009,0,0-0.003-0.028-0.006
		c-0.061-0.006-0.121-0.018-0.181-0.036c-0.024-0.005-0.035-0.009-0.028-0.009c0.009,0.006,0,0.004-0.027-0.006
		c-0.025-0.01-0.04-0.017-0.051-0.021c0.005,0,0-0.004-0.013-0.014c-0.024-0.009-0.042-0.018-0.057-0.028h-0.007l-0.004-0.007
		l-0.008-0.008c-0.019-0.009-0.036-0.019-0.051-0.033c0,0.005-0.006,0-0.021-0.015c-0.018-0.015-0.033-0.025-0.043-0.036
		c-0.003-0.004-0.012-0.014-0.027-0.026c-0.012-0.016-0.023-0.024-0.027-0.03c-0.004-0.009-0.018-0.02-0.036-0.033
		c-0.01-0.015-0.014-0.025-0.014-0.029c-0.012-0.01-0.022-0.024-0.036-0.05l-0.007-0.008c0-0.003-0.001-0.006-0.008-0.006v-0.006
		c0-0.006,0-0.007-0.006-0.007l-2.611-4.325v5.463c0,0.228-0.082,0.422-0.247,0.582c-0.163,0.163-0.36,0.246-0.591,0.246
		c-0.229,0-0.423-0.083-0.582-0.246c-0.164-0.16-0.245-0.354-0.245-0.582v-8.44c0-0.189,0.055-0.353,0.169-0.498
		c0.112-0.15,0.26-0.25,0.442-0.302c0.177-0.047,0.353-0.038,0.525,0.026c0.174,0.07,0.31,0.186,0.41,0.346l3.453,5.708l3.455-5.708
		c0.093-0.159,0.226-0.275,0.398-0.346c0.175-0.064,0.263-0.097,0.263-0.097S149.743,130.239,149.926,130.286z"/>
	<path fill="#5E5D5D" d="M161.703,140.292c-0.208-0.09-0.359-0.239-0.449-0.45c-0.083-0.211-0.083-0.422,0-0.633l0.893-2.142v-0.006
		l2.583-6.236c0.01-0.021,0.023-0.046,0.036-0.068l0.015-0.036c0.013-0.018,0.023-0.031,0.028-0.034c0-0.006,0.007-0.017,0.02-0.036
		c0.015-0.015,0.024-0.025,0.028-0.026c0-0.006,0.007-0.016,0.021-0.029c0.02-0.021,0.028-0.031,0.028-0.033
		c0.003-0.007,0.014-0.014,0.028-0.023c0.018-0.02,0.03-0.028,0.036-0.028c-0.006,0,0.003-0.007,0.027-0.019
		c0.02-0.016,0.03-0.025,0.034-0.031l0.029-0.02c0.024-0.015,0.037-0.019,0.043-0.019c0.009-0.005,0.026-0.014,0.048-0.023
		c0.024-0.015,0.032-0.018,0.019-0.015c-0.006,0.006,0,0,0.03-0.012c0.024-0.007,0.039-0.009,0.05-0.015
		c0.004,0,0.022-0.004,0.049-0.016l0.028-0.006c0.009,0,0.025-0.003,0.048-0.009l0.036-0.006c0.005,0,0.018,0,0.042,0
		c0.02,0,0.03,0,0.034,0c0.011,0,0.026,0,0.044,0h0.042l0.042,0.006l0.034,0.009c0.011,0,0.027,0.004,0.049,0.014
		c0.03,0.004,0.039,0.008,0.03,0.008c0.055,0.015,0.107,0.032,0.154,0.064c-0.006-0.005,0.003,0,0.028,0.013
		c0.021,0.014,0.036,0.022,0.042,0.026l0.027,0.023c0.02,0.014,0.031,0.021,0.036,0.026c0.003,0,0.013,0.008,0.028,0.022
		c0.014,0.014,0.025,0.023,0.036,0.029c0,0.002,0.008,0.012,0.02,0.026c0.02,0.02,0.027,0.03,0.027,0.036l0.021,0.026
		c0.018,0.02,0.03,0.03,0.03,0.036c0,0.003,0.006,0.017,0.021,0.034c0.015,0.019,0.022,0.03,0.022,0.036
		c0.012,0.022,0.024,0.047,0.033,0.068l2.584,6.236v0.006l0.891,2.142c0.085,0.211,0.085,0.422,0,0.633
		c-0.086,0.211-0.237,0.36-0.45,0.45c-0.102,0.04-0.208,0.063-0.316,0.063c-0.368,0-0.625-0.17-0.766-0.513l-0.673-1.63h-4.066
		l-0.673,1.63c-0.141,0.343-0.395,0.513-0.764,0.513c-0.108,0-0.162,0-0.162,0S161.807,140.331,161.703,140.292z M166.844,136.562
		l-1.357-3.258l-1.347,3.258H166.844z"/>
	<path fill="#5E5D5D" d="M180.869,140.292c-0.224,0-0.42-0.084-0.582-0.247c-0.162-0.16-0.241-0.352-0.241-0.575v-8.339
		c0-0.227,0.08-0.419,0.241-0.577c0.161-0.165,0.357-0.246,0.582-0.246c0.224,0,0.42,0.081,0.581,0.246
		c0.162,0.158,0.241,0.35,0.241,0.577v3.691l4.014-4.221c0.155-0.162,0.349-0.248,0.577-0.26c0.225-0.003,0.417,0.075,0.583,0.232
		c0.163,0.154,0.248,0.346,0.251,0.569c0.011,0.23-0.064,0.428-0.223,0.589l-3.371,3.545l3.504,3.688
		c0.154,0.169,0.23,0.365,0.225,0.589c-0.006,0.225-0.088,0.416-0.253,0.576c-0.158,0.149-0.348,0.226-0.568,0.226
		c-0.235,0-0.434-0.085-0.597-0.254l-3.447-3.631l-0.695,0.738v2.262c0,0.224-0.08,0.415-0.241,0.575
		C181.289,140.207,181.093,140.292,180.869,140.292z"/>
	<path fill="#5E5D5D" d="M198.581,140.354c-0.23,0-0.423-0.083-0.583-0.246c-0.163-0.16-0.247-0.354-0.247-0.582v-8.378
		c0-0.229,0.084-0.423,0.247-0.583c0.16-0.163,0.353-0.245,0.583-0.245s0.423,0.082,0.582,0.245c0.164,0.16,0.245,0.355,0.245,0.583
		v8.378c0,0.228-0.081,0.422-0.245,0.582C199.004,140.271,198.812,140.354,198.581,140.354z"/>
	<path fill="#5E5D5D" d="M217.45,140.038h-0.007v-0.008l-5.047-6.495v5.991c0,0.228-0.084,0.422-0.247,0.582
		c-0.156,0.163-0.352,0.246-0.581,0.246c-0.229,0-0.424-0.083-0.584-0.246c-0.162-0.16-0.245-0.354-0.245-0.582v-8.41
		c0-0.179,0.05-0.338,0.154-0.48c0.102-0.144,0.237-0.247,0.407-0.301c0.164-0.059,0.332-0.066,0.505-0.015
		c0.169,0.051,0.307,0.149,0.414,0.288l5.049,6.501v-5.993c0-0.23,0.081-0.427,0.238-0.584c0.164-0.164,0.358-0.246,0.589-0.246
		c0.23,0,0.424,0.082,0.583,0.246c0.163,0.157,0.247,0.354,0.247,0.584v8.425c0,0.009-0.005,0.021-0.008,0.041
		c0,0.018,0,0.031,0,0.034c0,0.009-0.004,0.023-0.007,0.042c0,0.018-0.003,0.032-0.008,0.042l-0.008,0.035
		c-0.003,0.024-0.009,0.039-0.013,0.042c0,0.006-0.005,0.019-0.016,0.036c-0.003,0.018-0.007,0.033-0.012,0.043l-0.015,0.035
		l-0.02,0.035c-0.008,0.009-0.015,0.021-0.021,0.041l-0.022,0.022c-0.004,0.009-0.013,0.021-0.028,0.04l-0.021,0.028
		c-0.005,0.005-0.015,0.014-0.03,0.027c-0.012,0.02-0.02,0.029-0.026,0.029c0,0.005-0.01,0.014-0.027,0.027
		c-0.014,0.014-0.026,0.023-0.036,0.028c0.016-0.009,0.013-0.008-0.006,0.008l-0.007,0.006c-0.038,0.029-0.072,0.054-0.105,0.071
		h-0.007c-0.039,0.019-0.075,0.036-0.112,0.05c-0.02,0.009-0.024,0.011-0.015,0.007c-0.038,0.013-0.077,0.021-0.12,0.027
		l-0.02,0.006c-0.042,0.006-0.084,0.009-0.121,0.009c-0.028,0-0.057-0.003-0.09-0.009c0.009,0.006,0.003,0.006-0.015,0
		c-0.028-0.004-0.051-0.009-0.069-0.014c0.005,0.005-0.006,0.002-0.029-0.007c-0.022-0.003-0.041-0.009-0.056-0.013
		c-0.004,0-0.014-0.006-0.028-0.015c-0.023-0.006-0.043-0.012-0.056-0.021c-0.009,0-0.019-0.006-0.028-0.016
		c-0.02-0.009-0.034-0.015-0.049-0.02c-0.014-0.01-0.025-0.018-0.028-0.021c-0.016-0.01-0.03-0.022-0.048-0.036
		c-0.016-0.009-0.024-0.016-0.03-0.021c-0.022-0.018-0.045-0.035-0.062-0.055l-0.006-0.008v-0.008
		c-0.018-0.018-0.03-0.026-0.03-0.026S217.465,140.057,217.45,140.038z"/>
	<path fill="#5E5D5D" d="M234.684,140.325c-1.385,0-2.567-0.491-3.55-1.475c-0.984-0.982-1.477-2.166-1.477-3.551
		c0-1.388,0.492-2.568,1.477-3.547c0.982-0.982,2.165-1.475,3.55-1.475c1.139,0,2.156,0.347,3.057,1.041
		c0.182,0.139,0.289,0.322,0.323,0.553c0.027,0.225-0.03,0.428-0.169,0.61c-0.141,0.185-0.323,0.287-0.551,0.317
		c-0.227,0.033-0.434-0.021-0.615-0.162c-0.604-0.463-1.285-0.695-2.045-0.695c-0.926,0-1.72,0.329-2.379,0.984
		c-0.654,0.659-0.982,1.45-0.982,2.373c0,0.925,0.328,1.719,0.982,2.378c0.659,0.656,1.453,0.984,2.379,0.984
		c0.866,0,1.62-0.292,2.263-0.877c0.009-0.012,0.025-0.023,0.048-0.045l0.008-1.839h-2.744c-0.233,0-0.431-0.078-0.59-0.236
		c-0.166-0.166-0.248-0.362-0.248-0.593c0-0.226,0.082-0.424,0.248-0.589c0.159-0.164,0.356-0.245,0.59-0.245h3.578
		c0.23,0,0.428,0.081,0.591,0.245c0.165,0.165,0.247,0.362,0.247,0.589l-0.023,4.454c0,0.228-0.082,0.422-0.245,0.582
		c-0.16,0.163-0.355,0.246-0.584,0.246h-0.006c-0.188,0-0.357-0.058-0.505-0.176c-0.146-0.112-0.241-0.256-0.29-0.428
		C236.29,140.133,235.511,140.325,234.684,140.325z"/>
	<path fill="#5E5D5D" d="M268.36,130.496c0.177,0.139,0.28,0.322,0.309,0.547c0.023,0.23-0.038,0.432-0.183,0.611l-3.04,3.805v4.066
		c0,0.228-0.083,0.425-0.246,0.589c-0.158,0.159-0.354,0.239-0.581,0.239c-0.23,0-0.424-0.08-0.584-0.239
		c-0.164-0.164-0.246-0.361-0.246-0.589v-4.066l-3.04-3.805c-0.144-0.18-0.204-0.381-0.176-0.611
		c0.024-0.225,0.124-0.408,0.303-0.547c0.178-0.145,0.383-0.207,0.611-0.184c0.223,0.028,0.41,0.13,0.554,0.311l2.578,3.227
		l2.581-3.227c0.142-0.182,0.323-0.283,0.55-0.311C267.979,130.289,268.183,130.352,268.36,130.496z"/>
	<path fill="#5E5D5D" d="M283.333,140.354c-1.391,0-2.576-0.495-3.559-1.482c-0.987-0.984-1.482-2.17-1.482-3.561
		c0-1.39,0.495-2.579,1.482-3.567c0.983-0.982,2.168-1.473,3.559-1.473c1.392,0,2.58,0.49,3.567,1.473
		c0.982,0.988,1.473,2.178,1.473,3.567c0,1.391-0.49,2.576-1.473,3.561C285.913,139.859,284.725,140.354,283.333,140.354z
		 M283.333,131.928c-0.93,0-1.727,0.33-2.387,0.99c-0.665,0.664-0.996,1.463-0.996,2.394c0,0.933,0.331,1.727,0.996,2.388
		c0.66,0.664,1.457,0.998,2.387,0.998c0.933,0,1.73-0.334,2.395-0.998c0.661-0.661,0.991-1.455,0.991-2.388
		c0-0.931-0.33-1.73-0.991-2.394C285.064,132.258,284.266,131.928,283.333,131.928z"/>
	<path fill="#5E5D5D" d="M305.35,130.286c0.224,0,0.418,0.078,0.574,0.237c0.159,0.161,0.239,0.352,0.239,0.575v5.661
		c0,0.99-0.35,1.838-1.054,2.539c-0.7,0.703-1.548,1.056-2.535,1.056c-0.991,0-1.838-0.353-2.542-1.056
		c-0.7-0.701-1.052-1.549-1.052-2.539v-5.661c0-0.223,0.079-0.414,0.238-0.575c0.16-0.159,0.353-0.237,0.577-0.237
		c0.225,0,0.416,0.078,0.574,0.237c0.161,0.161,0.24,0.352,0.24,0.575v5.661c0,0.541,0.19,1.005,0.575,1.389
		c0.384,0.385,0.848,0.576,1.389,0.576c0.538,0,1.001-0.191,1.385-0.576c0.382-0.384,0.576-0.848,0.576-1.389v-5.661
		c0-0.223,0.079-0.414,0.236-0.575C304.932,130.364,305.124,130.286,305.35,130.286z"/>
	<path fill="#5E5D5D" d="M335.421,137.354c-0.035,0.839-0.37,1.55-1.002,2.128c-0.637,0.581-1.395,0.872-2.275,0.872
		c-0.762,0-1.446-0.164-2.051-0.493c-0.726-0.392-1.186-0.963-1.384-1.713c-0.055-0.22-0.028-0.429,0.086-0.623
		c0.116-0.197,0.285-0.323,0.504-0.38c0.221-0.056,0.429-0.028,0.625,0.084c0.197,0.116,0.323,0.287,0.38,0.505
		c0.085,0.314,0.313,0.56,0.688,0.737c0.339,0.154,0.722,0.232,1.152,0.232c0.44,0,0.816-0.138,1.13-0.416
		c0.317-0.27,0.489-0.605,0.507-1.01c0.01-0.242-0.079-0.462-0.262-0.653c-0.288-0.308-0.775-0.47-1.459-0.479h-0.006
		c-0.018,0-0.025,0-0.016,0c-0.003,0-0.01,0-0.015,0c-1.144-0.017-2.024-0.347-2.631-0.988c-0.504-0.534-0.737-1.153-0.704-1.859
		c0.039-0.843,0.374-1.556,1.005-2.136c0.633-0.581,1.39-0.87,2.273-0.87c0.764,0,1.447,0.163,2.05,0.492
		c0.728,0.394,1.189,0.965,1.385,1.712c0.056,0.222,0.027,0.43-0.093,0.626c-0.11,0.197-0.277,0.322-0.498,0.378
		c-0.22,0.059-0.427,0.027-0.625-0.085c-0.195-0.117-0.321-0.284-0.377-0.503c-0.086-0.314-0.316-0.561-0.696-0.738
		c-0.332-0.156-0.715-0.232-1.146-0.232c-0.438,0-0.818,0.139-1.137,0.414c-0.314,0.275-0.478,0.613-0.496,1.012
		c-0.013,0.242,0.074,0.463,0.258,0.659c0.291,0.305,0.776,0.462,1.462,0.471h0.035c1.146,0.019,2.023,0.351,2.633,0.998
		C335.22,136.023,335.456,136.644,335.421,137.354z"/>
	<path fill="#5E5D5D" d="M350.753,140.354c-1.39,0-2.577-0.495-3.56-1.482c-0.986-0.984-1.481-2.17-1.481-3.561
		c0-1.39,0.495-2.579,1.481-3.567c0.982-0.982,2.17-1.473,3.56-1.473c1.39,0,2.58,0.49,3.566,1.473
		c0.983,0.988,1.475,2.178,1.475,3.567c0,1.391-0.491,2.576-1.475,3.561C353.333,139.859,352.143,140.354,350.753,140.354z
		 M350.753,131.928c-0.931,0-1.728,0.33-2.389,0.99c-0.663,0.664-0.994,1.463-0.994,2.394c0,0.933,0.331,1.727,0.994,2.388
		c0.661,0.664,1.458,0.998,2.389,0.998c0.934,0,1.73-0.334,2.395-0.998c0.661-0.661,0.991-1.455,0.991-2.388
		c0-0.931-0.33-1.73-0.991-2.394C352.483,132.258,351.687,131.928,350.753,131.928z"/>
	<path fill="#5E5D5D" d="M372.768,130.286c0.225,0,0.419,0.078,0.576,0.237c0.158,0.161,0.239,0.352,0.239,0.575v5.661
		c0,0.99-0.35,1.838-1.055,2.539c-0.699,0.703-1.544,1.056-2.531,1.056c-0.993,0-1.841-0.353-2.543-1.056
		c-0.702-0.701-1.054-1.549-1.054-2.539v-5.661c0-0.223,0.08-0.414,0.24-0.575c0.157-0.159,0.35-0.237,0.574-0.237
		c0.225,0,0.416,0.078,0.574,0.237c0.16,0.161,0.241,0.352,0.241,0.575v5.661c0,0.541,0.19,1.005,0.574,1.389
		c0.385,0.385,0.848,0.576,1.393,0.576c0.535,0,0.999-0.191,1.382-0.576c0.383-0.384,0.575-0.848,0.575-1.389v-5.661
		c0-0.223,0.08-0.414,0.239-0.575C372.353,130.364,372.544,130.286,372.768,130.286z"/>
	<path fill="#5E5D5D" d="M391.415,140.038h-0.007v-0.008l-5.048-6.495v5.991c0,0.228-0.084,0.422-0.247,0.582
		c-0.159,0.163-0.352,0.246-0.583,0.246s-0.423-0.083-0.581-0.246c-0.165-0.16-0.246-0.354-0.246-0.582v-8.41
		c0-0.179,0.05-0.338,0.153-0.48c0.103-0.144,0.24-0.247,0.408-0.301c0.163-0.059,0.333-0.066,0.505-0.015
		c0.169,0.051,0.307,0.149,0.414,0.288l5.049,6.501v-5.993c0-0.23,0.08-0.427,0.236-0.584c0.166-0.164,0.362-0.246,0.591-0.246
		c0.23,0,0.424,0.082,0.583,0.246c0.165,0.157,0.246,0.354,0.246,0.584v8.425c0,0.009,0,0.021-0.008,0.041c0,0.018,0,0.031,0,0.034
		c0,0.009,0,0.023-0.008,0.042c0,0.018,0,0.032-0.006,0.042l-0.006,0.035c-0.006,0.024-0.009,0.039-0.015,0.042
		c0,0.006-0.006,0.019-0.013,0.036c-0.007,0.018-0.012,0.033-0.015,0.043l-0.015,0.035l-0.021,0.035
		c-0.006,0.009-0.01,0.021-0.021,0.041l-0.022,0.022c-0.003,0.009-0.012,0.021-0.027,0.04l-0.02,0.028
		c-0.007,0.005-0.015,0.014-0.028,0.027c-0.015,0.02-0.025,0.029-0.028,0.029c0,0.005-0.012,0.014-0.029,0.027
		c-0.014,0.014-0.025,0.023-0.036,0.028c0.015-0.009,0.014-0.008-0.008,0.008l-0.006,0.006c-0.036,0.029-0.071,0.054-0.104,0.071
		h-0.008c-0.037,0.019-0.074,0.036-0.11,0.05c-0.018,0.009-0.025,0.011-0.015,0.007c-0.038,0.013-0.08,0.021-0.12,0.027l-0.02,0.006
		c-0.043,0.006-0.083,0.009-0.121,0.009c-0.026,0-0.058-0.003-0.091-0.009c0.01,0.006,0.006,0.006-0.016,0
		c-0.028-0.004-0.049-0.009-0.068-0.014c0.005,0.005-0.005,0.002-0.027-0.007c-0.023-0.003-0.043-0.009-0.058-0.013
		c-0.003,0-0.014-0.006-0.027-0.015c-0.022-0.006-0.04-0.012-0.055-0.021c-0.011,0-0.02-0.006-0.029-0.016
		c-0.018-0.009-0.035-0.015-0.051-0.02c-0.012-0.01-0.021-0.018-0.026-0.021c-0.016-0.01-0.03-0.022-0.051-0.036
		c-0.012-0.009-0.022-0.016-0.027-0.021c-0.022-0.018-0.045-0.035-0.064-0.055l-0.007-0.008v-0.008
		c-0.019-0.018-0.027-0.026-0.027-0.026S391.429,140.057,391.415,140.038z"/>
	<path fill="#5E5D5D" d="M405.047,140.354c-0.225,0-0.418-0.08-0.584-0.239c-0.161-0.164-0.243-0.361-0.243-0.589v-8.404
		c0-0.23,0.082-0.427,0.243-0.59c0.159-0.161,0.356-0.239,0.584-0.239h2.128c1.386,0,2.57,0.487,3.55,1.466
		c0.982,0.984,1.469,2.165,1.469,3.547c0,1.385-0.487,2.566-1.469,3.545c-0.979,0.983-2.164,1.475-3.55,1.475l-2.114,0.029H405.047z
		 M405.883,138.682l1.284-0.021c0.931,0,1.726-0.328,2.381-0.984c0.653-0.655,0.984-1.446,0.984-2.372
		c0-0.921-0.331-1.71-0.984-2.365c-0.655-0.66-1.447-0.99-2.373-0.99h-1.292V138.682z"/>
	<path fill="#5E5D5D" d="M435.66,140.354c-0.228,0-0.424-0.083-0.583-0.246c-0.163-0.16-0.245-0.354-0.245-0.582v-8.391
		c0-0.225,0.079-0.42,0.238-0.582c0.164-0.16,0.358-0.242,0.583-0.246l2.949-0.015c0.879,0,1.622,0.28,2.234,0.843
		c0.603,0.561,0.904,1.248,0.904,2.064c0,0.787-0.287,1.466-0.864,2.043c0.694,0.571,1.039,1.294,1.039,2.17
		c0,0.808-0.308,1.5-0.927,2.077c-0.613,0.576-1.353,0.864-2.218,0.864H435.66z M436.487,134.511h2.122
		c0.397,0,0.744-0.127,1.04-0.386c0.288-0.262,0.435-0.571,0.435-0.926c0-0.353-0.142-0.646-0.429-0.885
		c-0.284-0.242-0.634-0.365-1.046-0.365l-2.122,0.015V134.511z M436.487,138.698h2.284c0.411,0,0.761-0.128,1.053-0.38
		c0.29-0.249,0.434-0.551,0.434-0.905c0-0.349-0.142-0.639-0.428-0.881c-0.282-0.242-0.633-0.363-1.044-0.363
		c-0.025,0-0.045,0-0.065,0c-0.037,0-0.075,0-0.111,0h-2.122V138.698z"/>
	<path fill="#5E5D5D" d="M458.813,138.688c0.23,0,0.424,0.084,0.582,0.247c0.165,0.163,0.248,0.36,0.248,0.591
		c0,0.228-0.083,0.422-0.248,0.582c-0.158,0.163-0.352,0.246-0.582,0.246h-5.084c-0.228,0-0.424-0.083-0.582-0.246
		c-0.163-0.16-0.245-0.354-0.245-0.582v-8.418c0-0.234,0.082-0.431,0.245-0.591c0.158-0.165,0.354-0.245,0.582-0.245h0.007
		l5.077,0.014c0.23,0,0.425,0.082,0.59,0.246c0.16,0.163,0.24,0.359,0.24,0.59c0,0.229-0.083,0.422-0.248,0.583
		c-0.158,0.161-0.352,0.245-0.582,0.245h-0.007l-4.24-0.016v2.549h3.061c0.229,0,0.426,0.081,0.59,0.239
		c0.165,0.165,0.246,0.359,0.246,0.59c0,0.23-0.081,0.426-0.246,0.589c-0.164,0.16-0.361,0.24-0.59,0.24h-3.061v2.547H458.813z"/>
	<path fill="#5E5D5D" d="M472.066,131.928h-2.086c-0.229,0-0.426-0.083-0.589-0.246c-0.16-0.157-0.238-0.355-0.238-0.584
		c0-0.229,0.078-0.421,0.238-0.581c0.163-0.165,0.36-0.245,0.589-0.245h5.834c0.228,0,0.42,0.08,0.585,0.245
		c0.158,0.16,0.237,0.353,0.237,0.581c0,0.229-0.079,0.427-0.237,0.584c-0.165,0.163-0.357,0.246-0.585,0.246h-2.091v7.598
		c0,0.228-0.081,0.425-0.247,0.589c-0.156,0.159-0.351,0.239-0.581,0.239c-0.229,0-0.423-0.08-0.583-0.239
		c-0.163-0.164-0.246-0.361-0.246-0.589V131.928z"/>
	<path fill="#5E5D5D" d="M488.71,131.928h-2.083c-0.23,0-0.426-0.083-0.589-0.246c-0.16-0.157-0.239-0.355-0.239-0.584
		c0-0.229,0.079-0.421,0.239-0.581c0.163-0.165,0.358-0.245,0.589-0.245h5.834c0.225,0,0.419,0.08,0.583,0.245
		c0.158,0.16,0.238,0.353,0.238,0.581c0,0.229-0.08,0.427-0.238,0.584c-0.164,0.163-0.358,0.246-0.583,0.246h-2.094v7.598
		c0,0.228-0.081,0.425-0.245,0.589c-0.159,0.159-0.352,0.239-0.582,0.239c-0.23,0-0.423-0.08-0.583-0.239
		c-0.163-0.164-0.247-0.361-0.247-0.589V131.928z"/>
	<path fill="#5E5D5D" d="M509.322,138.688c0.23,0,0.424,0.084,0.582,0.247c0.164,0.163,0.246,0.36,0.246,0.591
		c0,0.228-0.082,0.422-0.246,0.582c-0.158,0.163-0.352,0.246-0.582,0.246h-5.083c-0.229,0-0.425-0.083-0.583-0.246
		c-0.163-0.16-0.245-0.354-0.245-0.582v-8.418c0-0.234,0.082-0.431,0.245-0.591c0.158-0.165,0.354-0.245,0.583-0.245h0.008
		l5.075,0.014c0.23,0,0.425,0.082,0.59,0.246c0.158,0.163,0.238,0.359,0.238,0.59c0,0.229-0.082,0.422-0.246,0.583
		c-0.158,0.161-0.352,0.245-0.582,0.245h-0.008l-4.239-0.016v2.549h3.06c0.23,0,0.427,0.081,0.591,0.239
		c0.163,0.165,0.247,0.359,0.247,0.59c0,0.23-0.084,0.426-0.247,0.589c-0.164,0.16-0.36,0.24-0.591,0.24h-3.06v2.547H509.322z"/>
	<path fill="#5E5D5D" d="M527.477,133.2c0,0.616-0.193,1.177-0.574,1.675c-0.373,0.498-0.859,0.852-1.462,1.063l1.595,3.23
		c0.096,0.201,0.109,0.41,0.033,0.626c-0.069,0.215-0.208,0.373-0.415,0.477c-0.116,0.056-0.239,0.085-0.364,0.085
		c-0.342,0-0.587-0.155-0.736-0.463l-1.861-3.773h-1.426v3.351c0,0.224-0.082,0.417-0.243,0.583
		c-0.16,0.158-0.356,0.239-0.584,0.239c-0.227,0-0.42-0.081-0.583-0.239c-0.16-0.166-0.239-0.359-0.239-0.583v-8.371
		c0-0.229,0.079-0.421,0.239-0.581c0.163-0.165,0.356-0.245,0.583-0.245h2.906c0.866,0,1.602,0.283,2.212,0.858
		C527.17,131.7,527.477,132.389,527.477,133.2z M524.4,134.471c0.393-0.015,0.731-0.144,1.011-0.386
		c0.276-0.248,0.415-0.545,0.415-0.886c0-0.355-0.146-0.658-0.436-0.908c-0.288-0.246-0.637-0.371-1.045-0.371h-2.079v2.551H524.4z"
		/>
</g>
<g>
	<path fill="#5E5D5D" d="M140.127,101.627h17.785v2.497h-15.015v5.432h14.498v2.496h-14.498v5.676h15.015v2.497h-17.785V101.627z"/>
	<path fill="#5E5D5D" d="M227.248,101.627h19.413v2.497h-8.308v16.101h-2.77v-16.101h-8.336V101.627z"/>
	<path fill="#5E5D5D" d="M319.801,101.627l9.61,15.285l9.611-15.285h4.941v18.598h-2.771v-16.101h-0.542l-10.387,16.101h-1.734
		l-10.388-16.101h-0.515v16.101h-2.77v-18.598H319.801z"/>
	<path fill="#5E5D5D" d="M426.658,101.627l9.774,18.598h-3.123l-2.198-4.128h-13.248l-2.172,4.128h-3.124l9.774-18.598H426.658z
		 M429.916,113.6l-5.05-9.748h-0.704l-5.051,9.748H429.916z"/>
	<path fill="#5E5D5D" d="M504.143,101.627h4.045l15.938,16.288v-16.288h2.77v18.598h-4.183l-15.8-16.154v16.154h-2.77V101.627z"/>
</g>
<path fill="#5E5D5D" d="M541.797,42.369c0,3.442-2.787,6.231-6.231,6.231c-3.44,0-6.229-2.79-6.229-6.231
	c0-3.441,2.789-6.23,6.229-6.23C539.01,36.138,541.797,38.927,541.797,42.369z"/>
<g>
	<polygon fill="#5E5D5D" points="79.798,76.625 79.754,76.599 79.754,76.649 	"/>
	<path fill="#5E5D5D" d="M106.563,30.716l0.012,0.006L106.697,0L80.071,15.231l-0.012-0.007v0.014l-0.03,0.017l0.03,0.017
		L79.89,45.947l0.035-0.02l6.674-3.804l-6.662,3.811l-0.012-0.006v0.014l-0.03,0.016l0.03,0.018l-0.094,16.774l-0.09-16.738
		l0.03-0.018l-0.03-0.016v-0.014l-12.871-7.352l-13.546-7.75l0-0.126l-0.11,0.063l-0.11-0.063l0,0.126L26.697,45.967l-0.012-0.007
		v0.014l-0.03,0.017l0.03,0.017l0,0.08L0.298,61.181l-0.012-0.007v0.014l-0.029,0.016l0.029,0.017L0.117,91.897l0.197-0.059
		l-0.132,0.076L0.17,91.906v0.014l-0.03,0.017l0.03,0.018L0,122.629l26.691-15.214l-3.183-1.861l3.178,1.85l0.093-23.408
		l0.144-0.043l-0.134-2.394l0.02-4.876l-0.284,0.163v-0.001l0.284-0.162l-0.145-0.084l0.007-0.004l0.132,0.077l0.001-0.153
		l26.403-15.05L50.2,59.709l3,1.748l0.012-2.858l0.011,2.858l3.195-1.861l-3.2,1.872l26.537,15.13l0.152,0.02l-0.001-0.055
		l26.54-15.127l-3.307-1.934l3.301,1.923l0.123-30.681l0.017-0.01l-0.017-0.011V30.716z M26.516,76.512l-3.69-2.158l3.69,2.15
		V76.512z M106.545,30.713l-3.734-2.182l3.74,2.178L106.545,30.713z"/>
	<polygon fill="#5E5D5D" points="79.847,76.652 79.799,76.624 79.798,76.625 79.846,76.652 	"/>
	<path fill="#5E5D5D" d="M79.808,76.66v0.014l-0.029,0.017l0.029,0.017l-0.17,30.649l-26.519,15.171l16.185,9.432l-16.178-9.219
		l0.001-0.176l-0.213,0.123l-26.21-15.218v-0.035l-0.03,0.018l-0.011-0.005v0.012L0.035,122.693l26.546,15.468l0.001-0.268
		l0.005,0.003l-0.001,0.274l0.239-0.136l26.157,15.241v0.148l26.66-15.418v0.127l26.446-15.295l0.129,0.075l0.001-0.15l0.218-0.127
		l-0.217-0.123l0.122-30.321l-26.555,15.188l0.001-0.08l26.542-15.13l-3.479-2.034l3.474,2.024L79.846,76.652l-0.026,0.015
		L79.808,76.66z M26.587,137.746l-0.005,0.003l0.013-3.277L26.587,137.746z"/>
</g>
</svg>
